# xmcd
#
# Track frame offsets:
#	150
#	15677
#	31155
#
# Disc length: 629 seconds
#
# Revision: 3
# Processed by: cddbd v1.5.2PL0 Copyright (c) Steve Scherf et al.
# Submitted via: audiograbber 1.83.01
#
DISCID=17027303
DTITLE=2. Maanantai - Mixet Tahdo Olla Munkaa [CDS)
DYEAR=1994
DGENRE=Dance
TTITLE0=Mixet Tahdo Olla Munkaa
TTITLE1=Mixet Tahdo Olla Munkaa (Mixet Tahdo Mix)
TTITLE2=Saat Mut Tuntemaan
EXTD=TR.
EXTT0=
EXTT1=
EXTT2=
PLAYORDER=
